HIERARCHY
ROOT Hips
{
  OFFSET 0.000000 0.000000 0.000000
  CHANNELS 6 Xposition Yposition Zposition Xrotation Yrotation Zrotation
  JOINT Spine
  {
    OFFSET 1.277922 23.685776 -1.473739
    CHANNELS 3 Xrotation Yrotation Zrotation
    JOINT Chest
    {
      OFFSET 1.277922 23.685776 -1.473739
      CHANNELS 3 Xrotation Yrotation Zrotation
      JOINT Neck
      {
        OFFSET 0.000000 4.227248 0.000000
        CHANNELS 3 Xrotation Yrotation Zrotation
        JOINT Head
        {
          OFFSET 0.000000 3.735021 0.000000
          CHANNELS 3 Xrotation Yrotation Zrotation
          End Site
          {
            OFFSET 0.000000 1.120506 0.000000
          }
        }
      }
      JOINT LeftCollar
      {
        OFFSET 3.000000 4.000000 0.000000
        CHANNELS 3 Xrotation Yrotation Zrotation
        JOINT LeftShoulder
        {
          OFFSET 15.589172 -3.940868 -1.613959
          CHANNELS 3 Xrotation Yrotation Zrotation
          JOINT LeftArm
          {
            OFFSET 1.009262 -19.267075 -10.059340
            CHANNELS 3 Xrotation Yrotation Zrotation
            JOINT LeftForeArm
            {
              OFFSET -7.551586 9.126048 -14.273645
              CHANNELS 3 Xrotation Yrotation Zrotation
              JOINT LeftHand
              {
                OFFSET -2.601524 3.809930 -1.584078
                CHANNELS 3 Xrotation Yrotation Zrotation
                End Site
                {
                  OFFSET -0.780457 1.142979 -0.475223
                }
              }
            }
          }
        }
      }
      JOINT RightCollar
      {
        OFFSET -3.000000 4.000000 0.000000
        CHANNELS 3 Xrotation Yrotation Zrotation
        JOINT RightShoulder
        {
          OFFSET -15.589172 3.940868 1.613959
          CHANNELS 3 Xrotation Yrotation Zrotation
          JOINT RightArm
          {
            OFFSET 0.369772 -24.896812 -13.866074
            CHANNELS 3 Xrotation Yrotation Zrotation
            JOINT RightForeArm
            {
              OFFSET 7.064691 11.192793 -19.148022
              CHANNELS 3 Xrotation Yrotation Zrotation
              JOINT RightHand
              {
                OFFSET 3.786626 5.224959 -4.202100
                CHANNELS 3 Xrotation Yrotation Zrotation
                End Site
                {
                  OFFSET 1.135988 1.567488 -1.260630
                }
              }
            }
          }
        }
      }
    }
  }
  JOINT LeftUpLeg
  {
    OFFSET 9.460444 -0.159481 1.370640
    CHANNELS 3 Xrotation Yrotation Zrotation
    JOINT LeftLeg
    {
      OFFSET 11.476000 -40.598035 -6.922701
      CHANNELS 3 Xrotation Yrotation Zrotation
      JOINT LeftFoot
      {
        OFFSET 10.718289 -38.308795 9.459754
        CHANNELS 3 Xrotation Yrotation Zrotation
        End Site
        {
          OFFSET 3.215487 -11.492639 2.837926
        }
      }
    }
  }
  JOINT RightUpLeg
  {
    OFFSET -9.460444 0.159481 -1.370640
    CHANNELS 3 Xrotation Yrotation Zrotation
    JOINT RightLeg
    {
      OFFSET -1.472079 -34.936613 11.400775
      CHANNELS 3 Xrotation Yrotation Zrotation
      JOINT RightFoot
      {
        OFFSET -12.155832 -39.708799 24.011806
        CHANNELS 3 Xrotation Yrotation Zrotation
        End Site
        {
          OFFSET -3.646750 -11.912640 7.203542
        }
      }
    }
  }
}
MOTION
Frames: 11
Frame Time: 0.083333
0.090789 0.145179 0.171168 1.828405 0.082825 3.764481 0.000000 0.000000 0.000000 -2.895846 12.297063 -13.823971 -75.437762 -9.634035 -5.519758 0.000000 0.000000 0.000000 4.941847 -5.771969 14.484285 3.241486 -8.706197 2.207289 -2.727771 6.941913 -4.180782 -0.973940 -1.831337 1.167420 0.000000 0.000000 0.000000 4.941847 -5.771969 14.484285 -1.317357 -6.008012 -2.795058 -1.110279 1.078668 -0.600470 1.273948 -0.589790 0.786088 0.000000 0.000000 0.000000 -8.272258 -0.849467 -8.135724 0.342601 -1.553630 0.758209 0.000000 0.000000 0.000000 6.679205 -0.477372 -2.077517 -3.900961 3.704132 7.257129 0.000000 0.000000 0.000000
0.082381 0.144437 0.192889 0.047796 0.336166 5.192901 0.000000 0.000000 0.000000 -2.649635 17.085055 -14.381267 -73.314042 -7.272380 -6.541870 0.000000 0.000000 0.000000 8.392875 -5.792319 14.904216 -0.879114 -14.565979 5.100758 -6.860792 12.472343 -2.095972 2.315713 -4.853045 2.039548 0.000000 0.000000 0.000000 8.392875 -5.792319 14.904216 -2.517603 -8.897974 -5.671956 -3.046268 -0.524965 1.103371 1.782781 -0.676532 0.160967 0.000000 0.000000 0.000000 -6.669311 -1.088538 -10.025627 -1.309997 -1.571468 3.186424 0.000000 0.000000 0.000000 8.359146 -0.868292 -2.589656 -2.149526 3.030077 6.777906 0.000000 0.000000 0.000000
0.078208 0.128811 0.226078 -1.159985 0.644015 8.009065 0.000000 0.000000 0.000000 -2.575772 19.318224 -15.298795 -72.370634 -4.593333 -7.616823 0.000000 0.000000 0.000000 11.157940 -5.855171 15.248917 -9.057732 -18.937120 10.304450 -11.451037 23.956590 -0.251982 7.087314 -11.439802 6.824088 0.000000 0.000000 0.000000 11.157940 -5.855171 15.248917 -4.053041 -9.246475 -9.927239 -3.771511 -1.774594 3.341834 2.321084 -1.364962 -0.759522 0.000000 0.000000 0.000000 -2.301656 -0.547491 -14.154690 -9.609617 -2.625360 10.331823 0.000000 0.000000 0.000000 10.468976 -1.955656 -5.284825 0.512334 1.612911 7.003620 0.000000 0.000000 0.000000
0.083942 0.102944 0.250635 -0.170493 0.688709 11.114355 0.000000 0.000000 0.000000 -2.662517 18.227304 -16.710010 -73.922142 -1.513088 -6.850430 0.000000 0.000000 0.000000 11.052478 -5.961944 15.253193 -20.660114 -18.033008 15.841608 -7.090623 35.806298 -2.725146 10.409742 -20.425536 13.290458 0.000000 0.000000 0.000000 11.052478 -5.961944 15.253193 -4.751446 -6.528380 -14.478181 -3.074838 -5.485985 4.472137 3.152438 -0.922317 -1.375679 0.000000 0.000000 0.000000 5.902784 1.593352 -19.104765 -26.474343 -4.925910 22.050479 0.000000 0.000000 0.000000 12.034939 -3.242654 -9.498512 3.700680 0.142213 9.226852 0.000000 0.000000 0.000000
0.092239 0.084925 0.259232 3.423824 0.235336 13.315574 0.000000 0.000000 0.000000 -2.507933 18.831721 -18.779290 -75.079770 -0.177016 -5.923424 0.000000 0.000000 0.000000 8.388298 -6.041775 15.380125 -30.410871 -16.629420 19.649954 3.669281 38.254473 -10.012338 14.822828 -24.429051 15.112174 0.000000 0.000000 0.000000 8.388298 -6.041775 15.380125 -4.028347 -6.947392 -15.027162 -3.695313 -6.407907 3.625419 3.887638 -1.024283 -1.486206 0.000000 0.000000 0.000000 10.652317 4.418489 -23.774439 -36.360601 -5.445145 33.155594 0.000000 0.000000 0.000000 10.760590 -3.355343 -13.022703 4.890873 -0.806682 10.422297 0.000000 0.000000 0.000000
0.095699 0.090053 0.253495 5.163223 -0.034374 14.324122 0.000000 0.000000 0.000000 -2.457603 18.101189 -19.418246 -75.226248 0.609690 -4.489237 0.000000 0.000000 0.000000 6.615558 -6.102155 15.296943 -26.987177 -16.804672 18.722720 -11.094496 35.513966 -5.404482 21.796590 -19.414952 12.345453 0.000000 0.000000 0.000000 6.615558 -6.102155 15.296943 -4.167283 -7.461114 -13.300575 -3.384764 -4.861383 1.308661 3.894260 -0.532265 -0.570857 0.000000 0.000000 0.000000 9.472571 5.012078 -25.086046 -27.908338 -4.344269 35.058162 0.000000 0.000000 0.000000 9.973302 -3.310967 -15.003638 4.338664 -0.680044 11.367213 0.000000 0.000000 0.000000
0.092525 0.116031 0.240070 3.759002 0.184058 13.709375 0.000000 0.000000 0.000000 -2.527161 18.141220 -18.059213 -73.787206 -0.263460 -5.860259 0.000000 0.000000 0.000000 7.941481 -6.134043 15.372538 -23.050291 -18.100277 16.931677 -14.073478 28.675944 -5.597770 20.378997 -11.901244 9.570500 0.000000 0.000000 0.000000 7.941481 -6.134043 15.372538 -6.780098 -8.020600 -12.899944 -2.776952 -2.881876 0.266085 4.658482 -0.699086 -0.077440 0.000000 0.000000 0.000000 8.481679 3.257607 -20.806816 -18.090061 -4.418783 21.038825 0.000000 0.000000 0.000000 11.977839 -3.921506 -14.513682 1.706628 0.186981 11.686358 0.000000 0.000000 0.000000
0.091259 0.142388 0.211211 1.225795 0.520318 10.832935 0.000000 0.000000 0.000000 -2.642670 18.333306 -15.756957 -73.475397 -2.835813 -8.533115 0.000000 0.000000 0.000000 9.905229 -6.057288 15.440832 -16.723274 -20.149090 15.216331 -8.510008 20.049729 -10.783242 13.168948 -3.995469 6.694044 0.000000 0.000000 0.000000 9.905229 -6.057288 15.440832 -10.040431 -7.960580 -12.916149 -1.404645 -2.536777 0.551598 5.023545 -0.336914 0.029940 0.000000 0.000000 0.000000 1.344397 0.226446 -13.922018 -4.019098 -1.087742 8.055692 0.000000 0.000000 0.000000 14.816650 -3.949524 -9.986674 -3.637051 1.908145 9.878368 0.000000 0.000000 0.000000
0.098624 0.148188 0.176144 2.553495 0.118788 5.365764 0.000000 0.000000 0.000000 -2.830351 13.705122 -13.542208 -76.900769 -6.103963 -5.748729 0.000000 0.000000 0.000000 5.383790 -5.869470 14.786204 -7.659006 -15.885346 13.311046 0.400384 13.277784 -14.793476 3.979409 -0.404066 6.578182 0.000000 0.000000 0.000000 5.383790 -5.869470 14.786204 -7.090001 -3.791894 -11.232507 -5.634741 -4.347862 0.570384 5.744587 0.413723 -1.204302 0.000000 0.000000 0.000000 -10.315514 -1.489501 -5.732194 8.939036 2.207783 -1.513263 0.000000 0.000000 0.000000 14.575442 -1.835120 -2.464935 -12.923656 4.417892 6.173580 0.000000 0.000000 0.000000
0.114260 0.138468 0.125580 4.489224 -0.230978 0.279695 0.000000 0.000000 0.000000 -3.251609 5.624002 -12.677016 -79.098906 -15.052726 -5.575789 0.000000 0.000000 0.000000 0.738738 -5.735943 14.357366 0.468491 -7.020469 11.975948 0.763291 7.459946 -14.013896 -0.686255 1.715101 5.481981 0.000000 0.000000 0.000000 0.738738 -5.735943 14.357366 -6.854134 4.078116 -9.858517 -17.810489 -9.011421 -3.711080 13.010001 2.717055 -3.602407 0.000000 0.000000 0.000000 -13.982603 -2.030461 -1.088286 12.357475 2.369529 -4.487579 0.000000 0.000000 0.000000 11.586797 -0.424011 0.802607 -20.466812 4.761155 3.305803 0.000000 0.000000 0.000000
0.145503 0.124484 0.077244 4.748005 -0.335425 -5.612549 0.000000 0.000000 0.000000 -3.858200 -5.788070 -13.293725 -72.911932 -26.521694 -2.971893 0.000000 0.000000 0.000000 0.331989 -5.361823 14.706224 0.162536 4.098630 17.539357 4.433655 0.991495 -17.497178 -4.629899 3.435552 5.587774 0.000000 0.000000 0.000000 0.331989 -5.361823 14.706224 -13.627248 15.989011 -9.554144 -47.247920 -16.411228 -16.602487 31.762106 7.106138 -7.514523 0.000000 0.000000 0.000000 -8.199189 -1.140598 4.395930 2.810429 -1.370605 -6.389958 0.000000 0.000000 0.000000 9.015633 -0.154323 2.678968 -25.365762 -1.829748 -3.057666 0.000000 0.000000 0.000000
